# xmcd
# Track frame offsets:
# 150
# 16061
# 31147
# 46012
# 64776
# 79205
# 93397
# 113298
# 125606
# 139839
# 154077
# 168787
# 185582
# 204005
# 218902
# 231965
# 248804
# 265477
#
# Disc length: 3740 seconds
# Revision: 0
# Processed by: cddbd v1.5.2PL0 Copyright (c) Steve Scherf et al.
# Submitted via: VisiTrax 2.11.2.271 - For more info visit www.synapsa.com
#
DISCID=e60e9a12
DTITLE=Various Artist - Promo Country November 2019
DYEAR=2019
DGENRE=Country
TTITLE0=Shane Owens - Hard Luck Girl
TTITLE1=CJ Solar - st Asking)
TTITLE2=Eric Church - Monsters
TTITLE3=Tanya Tucker - The House That Built Me
TTITLE4=Seaforth - Love That
TTITLE5=Little Big Town - Over Drinking
TTITLE6=Billy Rae Cyrus ft Johnny McGuire - Chevys And Fords
TTITLE7=Kelsea Ballerini - Homcoming Queen
TTITLE8=Chris Young - Drowning
TTITLE9=Ashley McBryde - One Night Standards
TTITLE10=Jason Aldean - We Back
TTITLE11=George Strait - The Weight Of The Badge
TTITLE12=Craig Morgan - The Father, My Son And The Holy Ghost
TTITLE13=Lauren Alaina - Getting Good
TTITLE14=Highwomen - Redesigning Women
TTITLE15=Luke Combs - Even Though I'm Leaving
TTITLE16=Tenille Townes - Jersey On The Wall (I'm Just Asking)
TTITLE17=Paige King Johnson - Water Down The Whiskey
EXTD=
EXTT0=
EXTT1=
EXTT2=
EXTT3=
EXTT4=
EXTT5=
EXTT6=
EXTT7=
EXTT8=
EXTT9=
EXTT10=
EXTT11=
EXTT12=
EXTT13=
EXTT14=
EXTT15=
EXTT16=
EXTT17=
PLAYORDER=
